<?xml version="1.0" encoding="UTF-8" standalone="no"?>
<!DOCTYPE svg PUBLIC "-//W3C//DTD SVG 1.1//EN"
 "http://www.w3.org/Graphics/SVG/1.1/DTD/svg11.dtd">
<!-- Generated by graphviz version 14.1.2 (0)
 -->
<!-- Title: DerivationTree Pages: 1 -->
<svg width="871pt" height="333pt"
 viewBox="0.00 0.00 871.00 333.00" xmlns="http://www.w3.org/2000/svg" xmlns:xlink="http://www.w3.org/1999/xlink">
<g id="graph0" class="graph" transform="scale(1 1) rotate(0) translate(4 329.02)">
<title>DerivationTree</title>
<polygon fill="white" stroke="none" points="-4,4 -4,-329.02 867.37,-329.02 867.37,4 -4,4"/>
<!-- node_1 -->
<g id="node1" class="node">
<title>node_1</title>
<ellipse fill="#d8b4e2" stroke="black" cx="555.75" cy="-299.57" rx="112.08" ry="25.46"/>
<text xml:space="preserve" text-anchor="start" x="484.5" y="-301.27" font-family="Times,serif" font-size="14.00">Attacker learns </text>
<text xml:space="preserve" text-anchor="start" x="597.75" y="-301.27" font-family="Courier,monospace" font-size="14.00">pw1</text>
<text xml:space="preserve" text-anchor="start" x="622.5" y="-301.27" font-family="Times,serif" font-size="14.00">.</text>
<text xml:space="preserve" text-anchor="start" x="488.62" y="-287.27" font-family="Times,serif" font-size="14.00">(❌ no pw leakage)</text>
</g>
<!-- node_2 -->
<g id="node2" class="node">
<title>node_2</title>
<polygon fill="#d9d9d9" stroke="black" points="635,-238.11 476.5,-238.11 476.5,-202.11 635,-202.11 635,-238.11"/>
<text xml:space="preserve" text-anchor="start" x="484.5" y="-216.44" font-family="Times,serif" font-size="14.00">Attacker learns </text>
<text xml:space="preserve" text-anchor="start" x="597.75" y="-216.44" font-family="Courier,monospace" font-size="14.00">pw1</text>
<text xml:space="preserve" text-anchor="start" x="622.5" y="-216.44" font-family="Times,serif" font-size="14.00">.</text>
</g>
<!-- node_2&#45;&gt;node_1 -->
<g id="edge1" class="edge">
<title>node_2&#45;&gt;node_1</title>
<path fill="none" stroke="black" d="M555.75,-238.3C555.75,-245.47 555.75,-254.09 555.75,-262.53"/>
<polygon fill="black" stroke="black" points="552.25,-262.27 555.75,-272.27 559.25,-262.27 552.25,-262.27"/>
</g>
<!-- node_3 -->
<g id="node3" class="node">
<title>node_3</title>
<polygon fill="#d9d9d9" stroke="black" points="590.25,-151.58 163.25,-151.58 163.25,-115.58 590.25,-115.58 590.25,-151.58"/>
<text xml:space="preserve" text-anchor="start" x="171.25" y="-129.91" font-family="Times,serif" font-size="14.00">Attacker learns </text>
<text xml:space="preserve" text-anchor="start" x="284.5" y="-129.91" font-family="Courier,monospace" font-size="14.00">user1</text>
<text xml:space="preserve" text-anchor="start" x="325.75" y="-129.91" font-family="Times,serif" font-size="14.00"> and </text>
<text xml:space="preserve" text-anchor="start" x="361" y="-129.91" font-family="Courier,monospace" font-size="14.00">hashed(pw1,salt1)</text>
<text xml:space="preserve" text-anchor="start" x="501.25" y="-129.91" font-family="Times,serif" font-size="14.00"> and </text>
<text xml:space="preserve" text-anchor="start" x="536.5" y="-129.91" font-family="Courier,monospace" font-size="14.00">salt1</text>
<text xml:space="preserve" text-anchor="start" x="577.75" y="-129.91" font-family="Times,serif" font-size="14.00">.</text>
</g>
<!-- node_3&#45;&gt;node_2 -->
<g id="edge2" class="edge">
<title>node_3&#45;&gt;node_2</title>
<path fill="none" stroke="black" d="M413.41,-151.89C440.95,-164.9 478.89,-182.82 508.67,-196.88"/>
<polygon fill="black" stroke="black" points="506.93,-199.93 517.47,-201.03 509.92,-193.6 506.93,-199.93"/>
</g>
<!-- node_4 -->
<g id="node4" class="node">
<title>node_4</title>
<path fill="#d9d9d9" stroke="black" d="M431.5,-47.26C431.5,-49.06 334.8,-50.53 215.75,-50.53 96.7,-50.53 0,-49.06 0,-47.26 0,-47.26 0,-17.8 0,-17.8 0,-15.99 96.7,-14.53 215.75,-14.53 334.8,-14.53 431.5,-15.99 431.5,-17.8 431.5,-17.8 431.5,-47.26 431.5,-47.26"/>
<path fill="none" stroke="black" d="M431.5,-47.26C431.5,-45.45 334.8,-43.98 215.75,-43.98 96.7,-43.98 0,-45.45 0,-47.26"/>
<text xml:space="preserve" text-anchor="start" x="8" y="-28.85" font-family="Times,serif" font-size="14.00">Table </text>
<text xml:space="preserve" text-anchor="start" x="50.75" y="-28.85" font-family="Courier,monospace" font-size="14.00">passwd</text>
<text xml:space="preserve" text-anchor="start" x="100.25" y="-28.85" font-family="Times,serif" font-size="14.00"> contains (</text>
<text xml:space="preserve" text-anchor="start" x="174.5" y="-28.85" font-family="Courier,monospace" font-size="14.00">user1,hashed(pw1,salt1),salt1</text>
<text xml:space="preserve" text-anchor="start" x="413.75" y="-28.85" font-family="Times,serif" font-size="14.00">).</text>
</g>
<!-- node_4&#45;&gt;node_3 -->
<g id="edge3" class="edge">
<title>node_4&#45;&gt;node_3</title>
<path fill="none" stroke="black" d="M244.16,-51.01C270.41,-67.16 309.6,-91.27 338.57,-109.09"/>
<polygon fill="black" stroke="black" points="336.71,-112.06 347.06,-114.32 340.38,-106.1 336.71,-112.06"/>
</g>
<!-- node_5 -->
<g id="node5" class="node">
<title>node_5</title>
<polygon fill="#f4cccc" stroke="#cc0000" points="627.92,-19.05 627.92,-46 575.68,-65.06 501.82,-65.06 449.58,-46 449.58,-19.05 501.82,0 575.68,0 627.92,-19.05"/>
<text xml:space="preserve" text-anchor="start" x="488.5" y="-36.48" font-family="Times,serif" font-size="14.00" fill="#cc0000">Database leak</text>
<text xml:space="preserve" text-anchor="start" x="515.5" y="-19.23" font-family="Times,serif" font-size="14.00" fill="#cc0000">1 hack</text>
</g>
<!-- node_5&#45;&gt;node_3 -->
<g id="edge4" class="edge">
<title>node_5&#45;&gt;node_3</title>
<path fill="none" stroke="black" d="M492.33,-61.91C467.89,-76.85 438.29,-94.95 415.16,-109.1"/>
<polygon fill="black" stroke="black" points="413.36,-106.1 406.65,-114.3 417.01,-112.07 413.36,-106.1"/>
</g>
<!-- node_6 -->
<g id="node6" class="node">
<title>node_6</title>
<polygon fill="#f4cccc" stroke="#cc0000" points="863.37,-120.11 863.37,-147.06 788.61,-166.11 682.89,-166.11 608.13,-147.06 608.13,-120.11 682.89,-101.06 788.61,-101.06 863.37,-120.11"/>
<text xml:space="preserve" text-anchor="start" x="660.38" y="-137.53" font-family="Times,serif" font-size="14.00" fill="#cc0000">Rainbow table attack</text>
<text xml:space="preserve" text-anchor="start" x="712.88" y="-120.28" font-family="Times,serif" font-size="14.00" fill="#cc0000">2 time</text>
</g>
<!-- node_6&#45;&gt;node_2 -->
<g id="edge5" class="edge">
<title>node_6&#45;&gt;node_2</title>
<path fill="none" stroke="black" d="M673.05,-164.03C650.03,-174.84 624.38,-186.88 602.95,-196.95"/>
<polygon fill="black" stroke="black" points="601.73,-193.65 594.17,-201.07 604.71,-199.99 601.73,-193.65"/>
</g>
</g>
</svg>
