<?xml version="1.0" encoding="UTF-8" standalone="no"?>
<!DOCTYPE svg PUBLIC "-//W3C//DTD SVG 1.1//EN"
 "http://www.w3.org/Graphics/SVG/1.1/DTD/svg11.dtd">
<!-- Generated by graphviz version 14.1.2 (0)
 -->
<!-- Title: DerivationTree Pages: 1 -->
<svg width="1502pt" height="405pt"
 viewBox="0.00 0.00 1502.00 405.00" xmlns="http://www.w3.org/2000/svg" xmlns:xlink="http://www.w3.org/1999/xlink">
<g id="graph0" class="graph" transform="scale(1 1) rotate(0) translate(4 401.02)">
<title>DerivationTree</title>
<polygon fill="white" stroke="none" points="-4,4 -4,-401.02 1498.12,-401.02 1498.12,4 -4,4"/>
<!-- node_1 -->
<g id="node1" class="node">
<title>node_1</title>
<ellipse fill="#d8b4e2" stroke="black" cx="914" cy="-371.57" rx="112.08" ry="25.46"/>
<text xml:space="preserve" text-anchor="start" x="842.75" y="-373.27" font-family="Times,serif" font-size="14.00">Attacker learns </text>
<text xml:space="preserve" text-anchor="start" x="956" y="-373.27" font-family="Courier,monospace" font-size="14.00">pw1</text>
<text xml:space="preserve" text-anchor="start" x="980.75" y="-373.27" font-family="Times,serif" font-size="14.00">.</text>
<text xml:space="preserve" text-anchor="start" x="846.88" y="-359.27" font-family="Times,serif" font-size="14.00">(❌ no pw leakage)</text>
</g>
<!-- node_2 -->
<g id="node2" class="node">
<title>node_2</title>
<polygon fill="#d9d9d9" stroke="black" points="993.25,-310.11 834.75,-310.11 834.75,-274.11 993.25,-274.11 993.25,-310.11"/>
<text xml:space="preserve" text-anchor="start" x="842.75" y="-288.44" font-family="Times,serif" font-size="14.00">Attacker learns </text>
<text xml:space="preserve" text-anchor="start" x="956" y="-288.44" font-family="Courier,monospace" font-size="14.00">pw1</text>
<text xml:space="preserve" text-anchor="start" x="980.75" y="-288.44" font-family="Times,serif" font-size="14.00">.</text>
</g>
<!-- node_2&#45;&gt;node_1 -->
<g id="edge1" class="edge">
<title>node_2&#45;&gt;node_1</title>
<path fill="none" stroke="black" d="M914,-310.3C914,-317.47 914,-326.09 914,-334.53"/>
<polygon fill="black" stroke="black" points="910.5,-334.27 914,-344.27 917.5,-334.27 910.5,-334.27"/>
</g>
<!-- node_3 -->
<g id="node3" class="node">
<title>node_3</title>
<polygon fill="#d9d9d9" stroke="black" points="1121.12,-238.11 706.88,-238.11 706.88,-202.11 1121.12,-202.11 1121.12,-238.11"/>
<text xml:space="preserve" text-anchor="start" x="714.88" y="-216.44" font-family="Times,serif" font-size="14.00">Attacker learns </text>
<text xml:space="preserve" text-anchor="start" x="828.12" y="-216.44" font-family="Courier,monospace" font-size="14.00">singularized(pw1,singularization1)</text>
<text xml:space="preserve" text-anchor="start" x="1108.62" y="-216.44" font-family="Times,serif" font-size="14.00">.</text>
</g>
<!-- node_3&#45;&gt;node_2 -->
<g id="edge2" class="edge">
<title>node_3&#45;&gt;node_2</title>
<path fill="none" stroke="black" d="M914,-238.42C914,-245.71 914,-254.39 914,-262.58"/>
<polygon fill="black" stroke="black" points="910.5,-262.49 914,-272.49 917.5,-262.49 910.5,-262.49"/>
</g>
<!-- node_4 -->
<g id="node4" class="node">
<title>node_4</title>
<polygon fill="#d9d9d9" stroke="black" points="724.88,-151.58 321.12,-151.58 321.12,-115.58 724.88,-115.58 724.88,-151.58"/>
<text xml:space="preserve" text-anchor="start" x="329.12" y="-135.28" font-family="Times,serif" font-size="14.00">Attacker learns </text>
<text xml:space="preserve" text-anchor="start" x="442.38" y="-135.28" font-family="Courier,monospace" font-size="14.00">user1</text>
<text xml:space="preserve" text-anchor="start" x="483.62" y="-135.28" font-family="Times,serif" font-size="14.00"> and </text>
<text xml:space="preserve" text-anchor="start" x="518.88" y="-135.28" font-family="Courier,monospace" font-size="14.00">hashed(singularized(pw1,</text>
<text xml:space="preserve" text-anchor="start" x="383.5" y="-121.28" font-family="Courier,monospace" font-size="14.00">singularization1),salt1)</text>
<text xml:space="preserve" text-anchor="start" x="581.5" y="-121.28" font-family="Times,serif" font-size="14.00"> and </text>
<text xml:space="preserve" text-anchor="start" x="616.75" y="-121.28" font-family="Courier,monospace" font-size="14.00">salt1</text>
<text xml:space="preserve" text-anchor="start" x="658" y="-121.28" font-family="Times,serif" font-size="14.00">.</text>
</g>
<!-- node_4&#45;&gt;node_3 -->
<g id="edge3" class="edge">
<title>node_4&#45;&gt;node_3</title>
<path fill="none" stroke="black" d="M603.54,-152C667.18,-165.75 756.02,-184.96 822.36,-199.3"/>
<polygon fill="black" stroke="black" points="821.23,-202.64 831.75,-201.33 822.71,-195.8 821.23,-202.64"/>
</g>
<!-- node_5 -->
<g id="node5" class="node">
<title>node_5</title>
<path fill="#d9d9d9" stroke="black" d="M430,-52.78C430,-55.26 333.63,-57.28 215,-57.28 96.37,-57.28 0,-55.26 0,-52.78 0,-52.78 0,-12.28 0,-12.28 0,-9.8 96.37,-7.78 215,-7.78 333.63,-7.78 430,-9.8 430,-12.28 430,-12.28 430,-52.78 430,-52.78"/>
<path fill="none" stroke="black" d="M430,-52.78C430,-50.3 333.63,-48.28 215,-48.28 96.37,-48.28 0,-50.3 0,-52.78"/>
<text xml:space="preserve" text-anchor="start" x="8" y="-34.23" font-family="Times,serif" font-size="14.00">Table </text>
<text xml:space="preserve" text-anchor="start" x="50.75" y="-34.23" font-family="Courier,monospace" font-size="14.00">passwd</text>
<text xml:space="preserve" text-anchor="start" x="100.25" y="-34.23" font-family="Times,serif" font-size="14.00"> contains (</text>
<text xml:space="preserve" text-anchor="start" x="174.5" y="-34.23" font-family="Courier,monospace" font-size="14.00">user1,hashed(singularized(pw1,</text>
<text xml:space="preserve" text-anchor="start" x="86.38" y="-20.23" font-family="Courier,monospace" font-size="14.00">singularization1),salt1),salt1</text>
<text xml:space="preserve" text-anchor="start" x="333.88" y="-20.23" font-family="Times,serif" font-size="14.00">).</text>
</g>
<!-- node_5&#45;&gt;node_4 -->
<g id="edge4" class="edge">
<title>node_5&#45;&gt;node_4</title>
<path fill="none" stroke="black" d="M290.35,-57.76C341.67,-74.27 408.93,-95.9 457.93,-111.66"/>
<polygon fill="black" stroke="black" points="456.68,-114.93 467.27,-114.66 458.82,-108.27 456.68,-114.93"/>
</g>
<!-- node_6 -->
<g id="node6" class="node">
<title>node_6</title>
<polygon fill="#d9d9d9" stroke="black" points="1085.12,-151.58 742.88,-151.58 742.88,-115.58 1085.12,-115.58 1085.12,-151.58"/>
<text xml:space="preserve" text-anchor="start" x="750.88" y="-129.91" font-family="Times,serif" font-size="14.00">Attacker learns </text>
<text xml:space="preserve" text-anchor="start" x="864.12" y="-129.91" font-family="Courier,monospace" font-size="14.00">user1</text>
<text xml:space="preserve" text-anchor="start" x="905.38" y="-129.91" font-family="Times,serif" font-size="14.00"> and </text>
<text xml:space="preserve" text-anchor="start" x="940.62" y="-129.91" font-family="Courier,monospace" font-size="14.00">singularization1</text>
<text xml:space="preserve" text-anchor="start" x="1072.62" y="-129.91" font-family="Times,serif" font-size="14.00">.</text>
</g>
<!-- node_6&#45;&gt;node_3 -->
<g id="edge5" class="edge">
<title>node_6&#45;&gt;node_3</title>
<path fill="none" stroke="black" d="M914,-151.69C914,-162.84 914,-177.67 914,-190.59"/>
<polygon fill="black" stroke="black" points="910.5,-190.23 914,-200.23 917.5,-190.23 910.5,-190.23"/>
</g>
<!-- node_7 -->
<g id="node7" class="node">
<title>node_7</title>
<path fill="#d9d9d9" stroke="black" d="M1128.12,-47.26C1128.12,-49.06 1025.88,-50.53 900,-50.53 774.12,-50.53 671.88,-49.06 671.88,-47.26 671.88,-47.26 671.88,-17.8 671.88,-17.8 671.88,-15.99 774.12,-14.53 900,-14.53 1025.88,-14.53 1128.12,-15.99 1128.12,-17.8 1128.12,-17.8 1128.12,-47.26 1128.12,-47.26"/>
<path fill="none" stroke="black" d="M1128.12,-47.26C1128.12,-45.45 1025.88,-43.98 900,-43.98 774.12,-43.98 671.88,-45.45 671.88,-47.26"/>
<text xml:space="preserve" text-anchor="start" x="679.88" y="-28.85" font-family="Times,serif" font-size="14.00">Table </text>
<text xml:space="preserve" text-anchor="start" x="722.62" y="-28.85" font-family="Courier,monospace" font-size="14.00">singularizations</text>
<text xml:space="preserve" text-anchor="start" x="854.62" y="-28.85" font-family="Times,serif" font-size="14.00"> contains (</text>
<text xml:space="preserve" text-anchor="start" x="928.88" y="-28.85" font-family="Courier,monospace" font-size="14.00">user1,singularization1</text>
<text xml:space="preserve" text-anchor="start" x="1110.38" y="-28.85" font-family="Times,serif" font-size="14.00">).</text>
</g>
<!-- node_7&#45;&gt;node_6 -->
<g id="edge6" class="edge">
<title>node_7&#45;&gt;node_6</title>
<path fill="none" stroke="black" d="M902.44,-50.78C904.5,-65.39 907.51,-86.64 909.93,-103.82"/>
<polygon fill="black" stroke="black" points="906.47,-104.28 911.33,-113.7 913.4,-103.31 906.47,-104.28"/>
</g>
<!-- node_8 -->
<g id="node8" class="node">
<title>node_8</title>
<polygon fill="#f4cccc" stroke="#cc0000" points="626.17,-19.05 626.17,-46 573.93,-65.06 500.07,-65.06 447.83,-46 447.83,-19.05 500.07,0 573.93,0 626.17,-19.05"/>
<text xml:space="preserve" text-anchor="start" x="486.75" y="-36.48" font-family="Times,serif" font-size="14.00" fill="#cc0000">Database leak</text>
<text xml:space="preserve" text-anchor="start" x="513.75" y="-19.23" font-family="Times,serif" font-size="14.00" fill="#cc0000">1 hack</text>
</g>
<!-- node_8&#45;&gt;node_4 -->
<g id="edge7" class="edge">
<title>node_8&#45;&gt;node_4</title>
<path fill="none" stroke="black" d="M532.49,-65.42C530.74,-77.8 528.75,-91.88 527.05,-103.94"/>
<polygon fill="black" stroke="black" points="523.6,-103.29 525.67,-113.69 530.54,-104.27 523.6,-103.29"/>
</g>
<!-- node_9 -->
<g id="node9" class="node">
<title>node_9</title>
<polygon fill="#f4cccc" stroke="#cc0000" points="1494.12,-19.05 1494.12,-46 1392.12,-65.06 1247.88,-65.06 1145.88,-46 1145.88,-19.05 1247.88,0 1392.12,0 1494.12,-19.05"/>
<text xml:space="preserve" text-anchor="start" x="1214.25" y="-36.48" font-family="Times,serif" font-size="14.00" fill="#cc0000">Singularization database leak</text>
<text xml:space="preserve" text-anchor="start" x="1296.75" y="-19.23" font-family="Times,serif" font-size="14.00" fill="#cc0000">1 hack</text>
</g>
<!-- node_9&#45;&gt;node_6 -->
<g id="edge8" class="edge">
<title>node_9&#45;&gt;node_6</title>
<path fill="none" stroke="black" d="M1214.39,-59.3C1146.45,-75.87 1059.45,-97.1 996.58,-112.44"/>
<polygon fill="black" stroke="black" points="995.88,-109 987,-114.77 997.54,-115.8 995.88,-109"/>
</g>
<!-- node_10 -->
<g id="node10" class="node">
<title>node_10</title>
<polygon fill="#f4cccc" stroke="#cc0000" points="1358.62,-120.11 1358.62,-147.06 1283.86,-166.11 1178.14,-166.11 1103.38,-147.06 1103.38,-120.11 1178.14,-101.06 1283.86,-101.06 1358.62,-120.11"/>
<text xml:space="preserve" text-anchor="start" x="1155.62" y="-137.53" font-family="Times,serif" font-size="14.00" fill="#cc0000">Rainbow table attack</text>
<text xml:space="preserve" text-anchor="start" x="1208.12" y="-120.28" font-family="Times,serif" font-size="14.00" fill="#cc0000">4 time</text>
</g>
<!-- node_10&#45;&gt;node_3 -->
<g id="edge9" class="edge">
<title>node_10&#45;&gt;node_3</title>
<path fill="none" stroke="black" d="M1143.96,-157.79C1095.85,-170.62 1036.64,-186.41 990.35,-198.75"/>
<polygon fill="black" stroke="black" points="989.7,-195.31 980.94,-201.26 991.5,-202.07 989.7,-195.31"/>
</g>
</g>
</svg>
