<?xml version="1.0" encoding="UTF-8" standalone="no"?>
<!DOCTYPE svg PUBLIC "-//W3C//DTD SVG 1.1//EN"
 "http://www.w3.org/Graphics/SVG/1.1/DTD/svg11.dtd">
<!-- Generated by graphviz version 14.1.2 (0)
 -->
<!-- Title: DerivationTree Pages: 1 -->
<svg width="1108pt" height="405pt"
 viewBox="0.00 0.00 1108.00 405.00" xmlns="http://www.w3.org/2000/svg" xmlns:xlink="http://www.w3.org/1999/xlink">
<g id="graph0" class="graph" transform="scale(1 1) rotate(0) translate(4 401.02)">
<title>DerivationTree</title>
<polygon fill="white" stroke="none" points="-4,4 -4,-401.02 1104.29,-401.02 1104.29,4 -4,4"/>
<!-- node_1 -->
<g id="node1" class="node">
<title>node_1</title>
<ellipse fill="#d8b4e2" stroke="black" cx="641.17" cy="-371.57" rx="112.08" ry="25.46"/>
<text xml:space="preserve" text-anchor="start" x="569.92" y="-373.27" font-family="Times,serif" font-size="14.00">Attacker learns </text>
<text xml:space="preserve" text-anchor="start" x="683.17" y="-373.27" font-family="Courier,monospace" font-size="14.00">pw1</text>
<text xml:space="preserve" text-anchor="start" x="707.92" y="-373.27" font-family="Times,serif" font-size="14.00">.</text>
<text xml:space="preserve" text-anchor="start" x="574.04" y="-359.27" font-family="Times,serif" font-size="14.00">(❌ no pw leakage)</text>
</g>
<!-- node_2 -->
<g id="node2" class="node">
<title>node_2</title>
<polygon fill="#d9d9d9" stroke="black" points="720.42,-310.11 561.92,-310.11 561.92,-274.11 720.42,-274.11 720.42,-310.11"/>
<text xml:space="preserve" text-anchor="start" x="569.92" y="-288.44" font-family="Times,serif" font-size="14.00">Attacker learns </text>
<text xml:space="preserve" text-anchor="start" x="683.17" y="-288.44" font-family="Courier,monospace" font-size="14.00">pw1</text>
<text xml:space="preserve" text-anchor="start" x="707.92" y="-288.44" font-family="Times,serif" font-size="14.00">.</text>
</g>
<!-- node_2&#45;&gt;node_1 -->
<g id="edge1" class="edge">
<title>node_2&#45;&gt;node_1</title>
<path fill="none" stroke="black" d="M641.17,-310.3C641.17,-317.47 641.17,-326.09 641.17,-334.53"/>
<polygon fill="black" stroke="black" points="637.67,-334.27 641.17,-344.27 644.67,-334.27 637.67,-334.27"/>
</g>
<!-- node_3 -->
<g id="node3" class="node">
<title>node_3</title>
<polygon fill="#d9d9d9" stroke="black" points="848.29,-238.11 434.04,-238.11 434.04,-202.11 848.29,-202.11 848.29,-238.11"/>
<text xml:space="preserve" text-anchor="start" x="442.04" y="-216.44" font-family="Times,serif" font-size="14.00">Attacker learns </text>
<text xml:space="preserve" text-anchor="start" x="555.29" y="-216.44" font-family="Courier,monospace" font-size="14.00">singularized(pw1,singularization1)</text>
<text xml:space="preserve" text-anchor="start" x="835.79" y="-216.44" font-family="Times,serif" font-size="14.00">.</text>
</g>
<!-- node_3&#45;&gt;node_2 -->
<g id="edge2" class="edge">
<title>node_3&#45;&gt;node_2</title>
<path fill="none" stroke="black" d="M641.17,-238.42C641.17,-245.71 641.17,-254.39 641.17,-262.58"/>
<polygon fill="black" stroke="black" points="637.67,-262.49 641.17,-272.49 644.67,-262.49 637.67,-262.49"/>
</g>
<!-- node_4 -->
<g id="node4" class="node">
<title>node_4</title>
<polygon fill="#d9d9d9" stroke="black" points="452.04,-151.58 48.29,-151.58 48.29,-115.58 452.04,-115.58 452.04,-151.58"/>
<text xml:space="preserve" text-anchor="start" x="56.29" y="-135.28" font-family="Times,serif" font-size="14.00">Attacker learns </text>
<text xml:space="preserve" text-anchor="start" x="169.54" y="-135.28" font-family="Courier,monospace" font-size="14.00">user1</text>
<text xml:space="preserve" text-anchor="start" x="210.79" y="-135.28" font-family="Times,serif" font-size="14.00"> and </text>
<text xml:space="preserve" text-anchor="start" x="246.04" y="-135.28" font-family="Courier,monospace" font-size="14.00">hashed(singularized(pw1,</text>
<text xml:space="preserve" text-anchor="start" x="110.67" y="-121.28" font-family="Courier,monospace" font-size="14.00">singularization1),salt1)</text>
<text xml:space="preserve" text-anchor="start" x="308.67" y="-121.28" font-family="Times,serif" font-size="14.00"> and </text>
<text xml:space="preserve" text-anchor="start" x="343.92" y="-121.28" font-family="Courier,monospace" font-size="14.00">salt1</text>
<text xml:space="preserve" text-anchor="start" x="385.17" y="-121.28" font-family="Times,serif" font-size="14.00">.</text>
</g>
<!-- node_4&#45;&gt;node_3 -->
<g id="edge3" class="edge">
<title>node_4&#45;&gt;node_3</title>
<path fill="none" stroke="black" d="M330.71,-152C394.34,-165.75 483.18,-184.96 549.53,-199.3"/>
<polygon fill="black" stroke="black" points="548.4,-202.64 558.91,-201.33 549.88,-195.8 548.4,-202.64"/>
</g>
<!-- node_5 -->
<g id="node5" class="node">
<title>node_5</title>
<path fill="#d9d9d9" stroke="black" d="M626.17,-52.78C626.17,-55.26 529.8,-57.28 411.17,-57.28 292.53,-57.28 196.17,-55.26 196.17,-52.78 196.17,-52.78 196.17,-12.28 196.17,-12.28 196.17,-9.8 292.53,-7.78 411.17,-7.78 529.8,-7.78 626.17,-9.8 626.17,-12.28 626.17,-12.28 626.17,-52.78 626.17,-52.78"/>
<path fill="none" stroke="black" d="M626.17,-52.78C626.17,-50.3 529.8,-48.28 411.17,-48.28 292.53,-48.28 196.17,-50.3 196.17,-52.78"/>
<text xml:space="preserve" text-anchor="start" x="204.17" y="-34.23" font-family="Times,serif" font-size="14.00">Table </text>
<text xml:space="preserve" text-anchor="start" x="246.92" y="-34.23" font-family="Courier,monospace" font-size="14.00">passwd</text>
<text xml:space="preserve" text-anchor="start" x="296.42" y="-34.23" font-family="Times,serif" font-size="14.00"> contains (</text>
<text xml:space="preserve" text-anchor="start" x="370.67" y="-34.23" font-family="Courier,monospace" font-size="14.00">user1,hashed(singularized(pw1,</text>
<text xml:space="preserve" text-anchor="start" x="282.54" y="-20.23" font-family="Courier,monospace" font-size="14.00">singularization1),salt1),salt1</text>
<text xml:space="preserve" text-anchor="start" x="530.04" y="-20.23" font-family="Times,serif" font-size="14.00">).</text>
</g>
<!-- node_5&#45;&gt;node_4 -->
<g id="edge4" class="edge">
<title>node_5&#45;&gt;node_4</title>
<path fill="none" stroke="black" d="M371.78,-57.76C346.3,-73.43 313.32,-93.73 288.13,-109.23"/>
<polygon fill="black" stroke="black" points="286.51,-106.11 279.83,-114.33 290.18,-112.07 286.51,-106.11"/>
</g>
<!-- node_6 -->
<g id="node6" class="node">
<title>node_6</title>
<polygon fill="#d9d9d9" stroke="black" points="812.29,-151.58 470.04,-151.58 470.04,-115.58 812.29,-115.58 812.29,-151.58"/>
<text xml:space="preserve" text-anchor="start" x="478.04" y="-129.91" font-family="Times,serif" font-size="14.00">Attacker learns </text>
<text xml:space="preserve" text-anchor="start" x="591.29" y="-129.91" font-family="Courier,monospace" font-size="14.00">user1</text>
<text xml:space="preserve" text-anchor="start" x="632.54" y="-129.91" font-family="Times,serif" font-size="14.00"> and </text>
<text xml:space="preserve" text-anchor="start" x="667.79" y="-129.91" font-family="Courier,monospace" font-size="14.00">singularization1</text>
<text xml:space="preserve" text-anchor="start" x="799.79" y="-129.91" font-family="Times,serif" font-size="14.00">.</text>
</g>
<!-- node_5&#45;&gt;node_6 -->
<g id="edge7" class="edge">
<title>node_5&#45;&gt;node_6</title>
<path fill="none" stroke="black" d="M467.43,-57.76C504.95,-73.92 553.88,-94.99 590.25,-110.65"/>
<polygon fill="black" stroke="black" points="588.67,-113.79 599.24,-114.53 591.44,-107.36 588.67,-113.79"/>
</g>
<!-- node_6&#45;&gt;node_3 -->
<g id="edge5" class="edge">
<title>node_6&#45;&gt;node_3</title>
<path fill="none" stroke="black" d="M641.17,-151.69C641.17,-162.84 641.17,-177.67 641.17,-190.59"/>
<polygon fill="black" stroke="black" points="637.67,-190.23 641.17,-200.23 644.67,-190.23 637.67,-190.23"/>
</g>
<!-- node_7 -->
<g id="node7" class="node">
<title>node_7</title>
<path fill="#d9d9d9" stroke="black" d="M1100.29,-47.26C1100.29,-49.06 998.04,-50.53 872.17,-50.53 746.29,-50.53 644.04,-49.06 644.04,-47.26 644.04,-47.26 644.04,-17.8 644.04,-17.8 644.04,-15.99 746.29,-14.53 872.17,-14.53 998.04,-14.53 1100.29,-15.99 1100.29,-17.8 1100.29,-17.8 1100.29,-47.26 1100.29,-47.26"/>
<path fill="none" stroke="black" d="M1100.29,-47.26C1100.29,-45.45 998.04,-43.98 872.17,-43.98 746.29,-43.98 644.04,-45.45 644.04,-47.26"/>
<text xml:space="preserve" text-anchor="start" x="652.04" y="-28.85" font-family="Times,serif" font-size="14.00">Table </text>
<text xml:space="preserve" text-anchor="start" x="694.79" y="-28.85" font-family="Courier,monospace" font-size="14.00">singularizations</text>
<text xml:space="preserve" text-anchor="start" x="826.79" y="-28.85" font-family="Times,serif" font-size="14.00"> contains (</text>
<text xml:space="preserve" text-anchor="start" x="901.04" y="-28.85" font-family="Courier,monospace" font-size="14.00">user1,singularization1</text>
<text xml:space="preserve" text-anchor="start" x="1082.54" y="-28.85" font-family="Times,serif" font-size="14.00">).</text>
</g>
<!-- node_7&#45;&gt;node_6 -->
<g id="edge6" class="edge">
<title>node_7&#45;&gt;node_6</title>
<path fill="none" stroke="black" d="M831.4,-51.01C792.67,-67.61 734.31,-92.64 692.45,-110.59"/>
<polygon fill="black" stroke="black" points="691.11,-107.36 683.3,-114.51 693.87,-113.79 691.11,-107.36"/>
</g>
<!-- node_8 -->
<g id="node8" class="node">
<title>node_8</title>
<polygon fill="#f4cccc" stroke="#cc0000" points="178.33,-19.05 178.33,-46 126.1,-65.06 52.23,-65.06 0,-46 0,-19.05 52.23,0 126.1,0 178.33,-19.05"/>
<text xml:space="preserve" text-anchor="start" x="38.92" y="-36.48" font-family="Times,serif" font-size="14.00" fill="#cc0000">Database leak</text>
<text xml:space="preserve" text-anchor="start" x="65.92" y="-19.23" font-family="Times,serif" font-size="14.00" fill="#cc0000">1 hack</text>
</g>
<!-- node_8&#45;&gt;node_4 -->
<g id="edge8" class="edge">
<title>node_8&#45;&gt;node_4</title>
<path fill="none" stroke="black" d="M135.3,-61.91C159.58,-76.85 189,-94.95 211.99,-109.1"/>
<polygon fill="black" stroke="black" points="210.09,-112.04 220.44,-114.3 213.76,-106.08 210.09,-112.04"/>
</g>
<!-- node_9 -->
<g id="node9" class="node">
<title>node_9</title>
<polygon fill="#f4cccc" stroke="#cc0000" points="1085.79,-120.11 1085.79,-147.06 1011.03,-166.11 905.3,-166.11 830.54,-147.06 830.54,-120.11 905.3,-101.06 1011.03,-101.06 1085.79,-120.11"/>
<text xml:space="preserve" text-anchor="start" x="882.79" y="-137.53" font-family="Times,serif" font-size="14.00" fill="#cc0000">Rainbow table attack</text>
<text xml:space="preserve" text-anchor="start" x="935.29" y="-120.28" font-family="Times,serif" font-size="14.00" fill="#cc0000">4 time</text>
</g>
<!-- node_9&#45;&gt;node_3 -->
<g id="edge9" class="edge">
<title>node_9&#45;&gt;node_3</title>
<path fill="none" stroke="black" d="M871.12,-157.79C823.02,-170.62 763.8,-186.41 717.51,-198.75"/>
<polygon fill="black" stroke="black" points="716.86,-195.31 708.1,-201.26 718.67,-202.07 716.86,-195.31"/>
</g>
</g>
</svg>
